<?xml version="1.0" encoding="UTF-8"?>
<svg version="1.1" xmlns="http://www.w3.org/2000/svg" width="521" height="479">
<path d="M0 0 C1.6396875 1.05574219 1.6396875 1.05574219 3.3125 2.1328125 C9.71716819 6.26696014 9.71716819 6.26696014 12 8 C12 8.66 12 9.32 12 10 C12.58523438 10.26683594 13.17046875 10.53367188 13.7734375 10.80859375 C16.04730176 12.02531059 17.71165914 13.34049323 19.625 15.0625 C20.31722656 15.68382812 21.00945312 16.30515625 21.72265625 16.9453125 C22.84994141 17.96238281 22.84994141 17.96238281 24 19 C24.82371094 19.71929687 25.64742188 20.43859375 26.49609375 21.1796875 C31.76876518 25.8183543 36.58137854 30.54281367 41 36 C41.74765625 36.91007812 42.4953125 37.82015625 43.265625 38.7578125 C75.57097502 79.29188375 90.42803929 130.47943945 85.5 182.015625 C81.55028369 216.10917021 69.37049896 249.8725503 48 277 C47.38898438 277.80179687 46.77796875 278.60359375 46.1484375 279.4296875 C32.68907492 296.76623271 17.20299408 310.82325311 -1 323 C-2.08023437 323.7321875 -3.16046875 324.464375 -4.2734375 325.21875 C-27.32173785 340.14978262 -55.78679361 349.51241968 -82.98828125 352.60546875 C-86.04231836 352.9083698 -86.04231836 352.9083698 -89 354 C-142.71002395 357.18925918 -193.73144576 341.29758843 -234.1875 305.5625 C-235.80232558 304.05298913 -237.40582979 302.53130861 -239 301 C-239.48500977 300.54608887 -239.97001953 300.09217773 -240.46972656 299.62451172 C-275.3894428 266.8669061 -297.47684723 218.45123914 -299.08251953 170.53759766 C-300.22116317 129.94029705 -291.07183298 87.51067236 -267 54 C-266.33097656 53.0615625 -265.66195312 52.123125 -264.97265625 51.15625 C-263.61260269 49.27192999 -262.2420983 47.39509209 -260.859375 45.52734375 C-259.23353672 43.31743331 -257.67379342 41.07647156 -256.125 38.8125 C-255.42375 37.884375 -254.7225 36.95625 -254 36 C-253.34 36 -252.68 36 -252 36 C-251.61545654 35.13084961 -251.61545654 35.13084961 -251.22314453 34.24414062 C-235.32414578 5.07376208 -190.99390855 -15.31310988 -160.76074219 -24.22998047 C-107.01659094 -39.2201691 -46.47758187 -32.32575406 0 0 Z M-225.8125 34.625 C-227.42305177 36.37359906 -228.97810034 38.17372041 -230.5 40 C-232.86759967 42.8411196 -235.38726974 45.38726974 -238 48 C-241.01548098 51.09152889 -241.01548098 51.09152889 -242 55 C-242.66 55 -243.32 55 -244 55 C-246.97221089 58.78082709 -249.44610068 62.92841461 -252 67 C-252.40347656 67.63711914 -252.80695313 68.27423828 -253.22265625 68.93066406 C-269.51004862 94.85518907 -278.81720854 124.35830869 -280 155 C-280.04125 155.93457031 -280.0825 156.86914062 -280.125 157.83203125 C-281.0457675 198.97882895 -266.39204961 242.13448021 -239 273 C-238.25967529 273.83869629 -238.25967529 273.83869629 -237.50439453 274.69433594 C-235.9091254 276.49335001 -234.3015217 278.28029989 -232.6875 280.0625 C-231.93170654 280.90397583 -231.93170654 280.90397583 -231.16064453 281.76245117 C-228.65620812 284.47900741 -226.48752743 286.66628999 -223 288 C-223 288.66 -223 289.32 -223 290 C-216.91209208 295.63455307 -209.89512592 300.40998949 -203 305 C-202.05898437 305.62648438 -201.11796875 306.25296875 -200.1484375 306.8984375 C-163.83750471 330.15581977 -117.10363206 340.75950034 -74.44921875 332.03125 C-72.9646573 331.69398655 -71.48163681 331.34988814 -70 331 C-69.15002441 330.80664062 -68.30004883 330.61328125 -67.42431641 330.4140625 C-20.9765837 319.59712421 16.62481711 290.94311247 41.7734375 250.72265625 C65.04625439 212.47718869 72.78550298 166.58937516 62.80249023 122.95849609 C57.44808905 101.02508956 48.90151772 80.55447956 36 62 C35.43587402 61.17870605 35.43587402 61.17870605 34.86035156 60.34082031 C31.58686532 55.55127536 31.58686532 55.55127536 28 51 C27.34 51 26.68 51 26 51 C25.7525 50.43667969 25.505 49.87335938 25.25 49.29296875 C9.84664829 21.03744545 -31.6378067 1.99668289 -60.8125 -6.59765625 C-67.80049973 -8.54692682 -74.8148039 -9.98800055 -82 -11 C-82.95338257 -11.13921875 -82.95338257 -11.13921875 -83.92602539 -11.28125 C-134.97961236 -17.93705461 -188.20321795 -0.47699658 -225.8125 34.625 Z " fill="#48A60C" transform="translate(367,119)"/>
<path d="M0 0 C0.83660156 0.44085938 1.67320312 0.88171875 2.53515625 1.3359375 C22.00340631 12.22852872 34.42141149 30.46281526 40.75 51.4921875 C45.55002708 72.35897188 41.93109016 95.3623878 30.74169922 113.46582031 C21.42355401 128.05846014 10.00746475 138.13039974 -6 145 C-6.90363281 145.38929688 -7.80726563 145.77859375 -8.73828125 146.1796875 C-27.91909084 153.78539203 -50.29985442 152.94668221 -69.1875 144.875 C-85.32128254 137.56159341 -98.28943049 126.50034678 -107 111 C-107.46148437 110.18789063 -107.92296875 109.37578125 -108.3984375 108.5390625 C-118.33245472 89.93535753 -120.05475518 67.13388471 -114 47 C-109.4657739 32.71635734 -101.79229095 21.27673565 -91 11 C-90.01 10.67 -89.02 10.34 -88 10 C-88 9.34 -88 8.68 -88 8 C-62.52540101 -10.61289249 -28.17670683 -15.41829398 0 0 Z " fill="#FD6F01" transform="translate(298,295)"/>
<path d="M0 0 C0.33 0 0.66 0 1 0 C3.23362593 39.21254409 -12.92336624 82.43741592 -37 113 C-37.91652344 114.20269531 -37.91652344 114.20269531 -38.8515625 115.4296875 C-52.31092508 132.76623271 -67.79700592 146.82325311 -86 159 C-87.08023437 159.7321875 -88.16046875 160.464375 -89.2734375 161.21875 C-112.32173785 176.14978262 -140.78679361 185.51241968 -167.98828125 188.60546875 C-171.04231836 188.9083698 -171.04231836 188.9083698 -174 190 C-227.71002395 193.18925918 -278.73144576 177.29758843 -319.1875 141.5625 C-320.80232558 140.05298913 -322.40582979 138.53130861 -324 137 C-324.48500977 136.54608887 -324.97001953 136.09217773 -325.46972656 135.62451172 C-361.33324716 101.98153891 -382.1269991 53.67241112 -383.88671875 4.77734375 C-383.92410156 3.53082031 -383.96148437 2.28429687 -384 1 C-383.34 1 -382.68 1 -382 1 C-381.46375 1.66 -380.9275 2.32 -380.375 3 C-377.58192017 5.35206722 -375.79254727 5.40875602 -372.1953125 5.3359375 C-369.33140311 4.89768802 -366.72391931 3.97005674 -364 3 C-363.89042969 4.26972656 -363.78085937 5.53945313 -363.66796875 6.84765625 C-359.89038461 48.74487058 -345.04031527 84.95137277 -316.625 116.0625 C-316.11275879 116.62348389 -315.60051758 117.18446777 -315.07275391 117.76245117 C-312.81956384 120.19025786 -310.76990841 122.1533944 -308 124 C-308 124.66 -308 125.32 -308 126 C-307.42636719 126.25910156 -306.85273438 126.51820313 -306.26171875 126.78515625 C-303.80839583 128.10291692 -301.9325942 129.63260565 -299.8125 131.4375 C-262.71845741 161.33984045 -215.43106809 173.25863569 -168.38671875 168.5390625 C-163.86216992 167.94967557 -159.43850042 167.04815069 -155 166 C-154.15002441 165.80664062 -153.30004883 165.61328125 -152.42431641 165.4140625 C-125.28928285 159.09474471 -101.17091959 147.11422293 -80 129 C-79.45005371 128.52981445 -78.90010742 128.05962891 -78.33349609 127.57519531 C-48.90700965 102.09121966 -29.39749532 67.14462669 -22 29 C-21.80019531 28.04738281 -21.60039062 27.09476562 -21.39453125 26.11328125 C-19.74625009 17.82230307 -18.92522872 9.39595852 -18 1 C-17.34 1 -16.68 1 -16 1 C-15.195625 1.99 -15.195625 1.99 -14.375 3 C-11.41465194 5.49292468 -9.68032054 5.63446904 -5.90234375 5.47265625 C-2.79718149 4.70114776 -1.62965216 2.60744346 0 0 Z " fill="#FA7006" transform="translate(452,283)"/>
<path d="M0 0 C7.81880841 7.44075614 12.80343523 17.30467614 13.12084961 28.10229492 C13.27411373 40.39787965 11.32721851 49.85541054 2.52734375 59.015625 C1.66109375 59.84513672 1.66109375 59.84513672 0.77734375 60.69140625 C0.28234375 61.17222656 -0.21265625 61.65304688 -0.72265625 62.1484375 C-8.48488113 69.13022129 -18.42926541 72.25765588 -28.78125 71.93359375 C-40.3234708 70.78860545 -49.9979206 66.40104041 -58.09765625 58.00390625 C-65.53040989 48.85590178 -68.24209844 37.24022996 -67.22265625 25.69140625 C-64.63169857 12.68979329 -58.88389713 3.74908474 -47.9296875 -3.68359375 C-33.18834707 -12.53265236 -13.32636911 -10.87366314 0 0 Z " fill="#5C088B" transform="translate(508.22265625,151.30859375)"/>
<path d="M0 0 C7.9965661 7.48119489 13.20773429 16.65973774 14.1171875 27.6328125 C14.40158979 39.60764579 12.03121682 49.47626154 4.01171875 58.60546875 C-4.37873227 67.0727554 -14.00970065 71.35889153 -25.93359375 71.9453125 C-36.52407229 71.72509461 -47.19618768 67.80728212 -54.99609375 60.5078125 C-64.03679522 50.51662163 -66.74302468 40.11284261 -66.43359375 26.99609375 C-65.83705488 15.81347551 -60.26646182 7.43058452 -52.24609375 0.0078125 C-37.16472957 -12.50772412 -15.25757689 -12.26770829 0 0 Z " fill="#2296F2" transform="translate(66.12109375,151.2421875)"/>
<path d="M0 0 C0.680625 0.391875 1.36125 0.78375 2.0625 1.1875 C2.76375 1.538125 3.465 1.88875 4.1875 2.25 C12.89530015 6.99970917 18.82206258 16.03090276 21.74609375 25.37109375 C24.39271548 35.90282297 23.56246004 46.60956092 18.41015625 56.29296875 C13.33553029 64.414516 13.33553029 64.414516 10.0625 67.1875 C9.4025 67.1875 8.7425 67.1875 8.0625 67.1875 C8.0625 67.8475 8.0625 68.5075 8.0625 69.1875 C-3.65831049 76.27346528 -14.30291126 78.94530074 -27.8125 76.125 C-38.05915412 73.34115137 -46.78501299 67.40261863 -52.11328125 58.14453125 C-53.12682485 56.18009948 -54.06203323 54.21699114 -54.9375 52.1875 C-55.288125 51.39859375 -55.63875 50.6096875 -56 49.796875 C-59.79661119 39.22964053 -57.88836594 27.93723476 -53.3125 18 C-47.99326315 8.05701974 -40.53928579 2.31635096 -30.2421875 -1.921875 C-20.92373259 -4.43323164 -8.69465041 -4.34732521 0 0 Z " fill="#45A607" transform="translate(277.9375,2.8125)"/>
<path d="M0 0 C0.1546875 1.6396875 0.1546875 1.6396875 0.3125 3.3125 C1.04684828 7.44055677 1.04684828 7.44055677 4 10 C4.99 10.33 5.98 10.66 7 11 C7 11.66 7 12.32 7 13 C8.98 13 10.96 13 13 13 C11.625 15.5 11.625 15.5 10 18 C9.34 18 8.68 18 8 18 C7.773125 18.515625 7.54625 19.03125 7.3125 19.5625 C5.51782382 22.89547005 3.50034985 26.14703671 1 29 C0.34 29 -0.32 29 -1 29 C-1.26554687 29.73347656 -1.53109375 30.46695313 -1.8046875 31.22265625 C-2.99050818 33.97794548 -4.33763634 36.03910736 -6.125 38.4375 C-23.2277969 62.51597183 -33.6506151 92.2408862 -35.4453125 121.73046875 C-35.51911133 122.90907471 -35.59291016 124.08768066 -35.66894531 125.30200195 C-35.80447717 127.65213084 -35.91648032 130.00375538 -36.00292969 132.35620117 C-36.06125977 133.43232666 -36.11958984 134.50845215 -36.1796875 135.6171875 C-36.21819824 136.58253418 -36.25670898 137.54788086 -36.29638672 138.54248047 C-37 141 -37 141 -39.42016602 142.81152344 C-43.32721224 144.61141943 -45.71172648 144.408407 -50 144 C-52.5 142.625 -52.5 142.625 -54 141 C-54 140.34 -54 139.68 -54 139 C-54.66 139 -55.32 139 -56 139 C-57.51823781 100.76289951 -46.48272106 59.29845159 -24 28 C-22.99646484 26.59234375 -22.99646484 26.59234375 -21.97265625 25.15625 C-20.61260269 23.27192999 -19.2420983 21.39509209 -17.859375 19.52734375 C-16.23353672 17.31743331 -14.67379342 15.07647156 -13.125 12.8125 C-12.073125 11.4203125 -12.073125 11.4203125 -11 10 C-10.34 10 -9.68 10 -9 10 C-8.79375 9.46375 -8.5875 8.9275 -8.375 8.375 C-6.93750621 5.89205618 -3.18977926 0 0 0 Z " fill="#2496F0" transform="translate(124,145)"/>
<path d="M0 0 C1.6958686 1.64287271 3.35483453 3.3068005 5 5 C5.58136719 5.59683594 6.16273438 6.19367188 6.76171875 6.80859375 C12.59509586 13.06793755 17.21310121 19.96072409 21.80810547 27.14501953 C22.88765385 28.82515239 23.99131028 30.48973444 25.09765625 32.15234375 C43.19556022 60.10874809 52.69540913 94.66699967 53.375 127.8125 C53.41238281 128.52341797 53.44976562 129.23433594 53.48828125 129.96679688 C53.5528931 133.85427677 53.0768307 136.43254833 50.73046875 139.4765625 C48 142 48 142 45.90234375 142.69140625 C41.76473195 142.41995259 38.87910441 142.11902978 36 139 C36 138.34 36 137.68 36 137 C35.34 137 34.68 137 34 137 C33.96036133 136.34741211 33.92072266 135.69482422 33.87988281 135.02246094 C31.47114237 97.0282401 22.21388528 61.45215444 -0.76318359 30.52832031 C-2.62467969 28.01437905 -4.0026241 25.99212769 -5 23 C-5.66 23 -6.32 23 -7 23 C-8.7265625 21.06640625 -8.7265625 21.06640625 -10.625 18.5625 C-11.25664062 17.73878906 -11.88828125 16.91507813 -12.5390625 16.06640625 C-14 14 -14 14 -14 13 C-12.783125 12.773125 -11.56625 12.54625 -10.3125 12.3125 C-6.00725779 11.22092263 -3.71397219 9.61862959 -1 6 C-0.12010026 2.81849108 -0.12010026 2.81849108 0 0 Z " fill="#5D0C8A" transform="translate(400,147)"/>
<path d="M0 0 C5.3885825 1.16224328 8.60092623 2.3648994 12 7 C12.67656373 11.20972987 12.50990012 13.18051767 10.25 16.8125 C6.88327773 20.08570221 5.14600786 20.87936759 0.4375 21.375 C-3 21 -3 21 -4.9375 19 C-5.288125 18.34 -5.63875 17.68 -6 17 C-3.36 17 -0.72 17 2 17 C1.32661219 10.93878558 1.32661219 10.93878558 0 5 C-0.625 2.8125 -0.625 2.8125 -1 1 C-0.67 0.67 -0.34 0.34 0 0 Z " fill="#45A604" transform="translate(388,139)"/>
<path d="M0 0 C-14.14991675 4.960603 -28.06452501 8.90850603 -42.98828125 10.60546875 C-46.04231836 10.9083698 -46.04231836 10.9083698 -49 12 C-53.55739834 12.27061475 -58.12292786 12.23877518 -62.6875 12.25 C-63.35162903 12.25233643 -64.01575806 12.25467285 -64.70001221 12.25708008 C-77.62347453 12.2741854 -90.23306222 11.03577973 -103 9 C-103 8.67 -103 8.34 -103 8 C-101.083412 7.97287847 -99.1667127 7.95354903 -97.25 7.9375 C-95.64898437 7.92009766 -95.64898437 7.92009766 -94.015625 7.90234375 C-91 8 -91 8 -89.04878235 8.49702454 C-85.6212925 9.33847229 -82.11617133 9.16299433 -78.60546875 9.16796875 C-77.36885246 9.17296135 -77.36885246 9.17296135 -76.10725403 9.17805481 C-74.35804805 9.18311535 -72.60883243 9.1854634 -70.85961914 9.18530273 C-68.23501667 9.18746093 -65.61085467 9.20554622 -62.98632812 9.22460938 C-52.78903906 9.25820576 -43.07197739 8.59702821 -33 7 C-30.00237983 6.63574434 -27.00314311 6.31612033 -24 6 C-24 5.34 -24 4.68 -24 4 C-23.39414062 3.89042969 -22.78828125 3.78085937 -22.1640625 3.66796875 C-16.69370495 2.63280878 -11.49355946 1.29827532 -6.2265625 -0.51171875 C-3.76942569 -1.05056454 -2.35700312 -0.80181156 0 0 Z " fill="#E47F34" transform="translate(327,461)"/>
<path d="M0 0 C-3.4352048 2.29013653 -4.985331 2.17842973 -9 2 C-9 2.99 -9 3.98 -9 5 C-9.55945313 4.96519531 -10.11890625 4.93039062 -10.6953125 4.89453125 C-15.86792847 4.71989309 -20.36212942 5.23130349 -25.38671875 6.4921875 C-33.21067071 8.22770286 -40.70017999 8.4115 -48.6875 8.3125 C-50.04362205 8.31461209 -51.39974282 8.31786318 -52.75585938 8.32226562 C-62.59833323 8.26777785 -62.59833323 8.26777785 -66 6 C-65.16041748 5.98541748 -64.32083496 5.97083496 -63.45581055 5.95581055 C-44.02946012 5.57974808 -25.12987839 4.96618013 -6.34765625 -0.546875 C-3.8475064 -1.02943304 -2.38528313 -0.81907634 0 0 Z " fill="#E67B29" transform="translate(313,447)"/>
<path d="M0 0 C0.33 0 0.66 0 1 0 C1.08606951 3.95919735 0.999415 7.86365605 0.6875 11.8125 C0.62949219 12.56144531 0.57148437 13.31039062 0.51171875 14.08203125 C0.04770809 16.72795466 -0.62751282 19.08927758 -1.4375 21.64453125 C-3.09076158 27.006071 -3.97453447 32.31865125 -4.6875 37.875 C-4.81487549 38.83229004 -4.94225098 39.78958008 -5.07348633 40.77587891 C-5.93080274 47.55966098 -6.38963552 54.15973193 -6 61 C-6.66 61 -7.32 61 -8 61 C-8.82638529 40.18733343 -5.28726448 20.06234743 0 0 Z " fill="#4696D6" transform="translate(76,223)"/>
<path d="M0 0 C1.32 0.33 2.64 0.66 4 1 C-3.55322761 9.2613427 -12.07580075 12.99973949 -23.23046875 14.25 C-32.48477554 14.54554672 -40.0313622 11.35862861 -48 7 C-46.68 6.67 -45.36 6.34 -44 6 C-44 6.66 -44 7.32 -44 8 C-38.06 8.99 -38.06 8.99 -32 10 C-32 10.66 -32 11.32 -32 12 C-24.64748331 11.46589137 -17.32097997 10.86859084 -10 10 C-10 9.34 -10 8.68 -10 8 C-8.68 8 -7.36 8 -6 8 C-6 7.01 -6 6.02 -6 5 C-4.02 4.67 -2.04 4.34 0 4 C0 2.68 0 1.36 0 0 Z " fill="#4A9EDE" transform="translate(65,209)"/>
<path d="M0 0 C0.66 0.33 1.32 0.66 2 1 C1.97721619 4.27238031 1.89994236 7.54125903 1.8125 10.8125 C1.80669922 11.74126953 1.80089844 12.67003906 1.79492188 13.62695312 C1.71207102 16.17691836 1.57500562 18.51365164 1 21 C-1.8033467 23.57450207 -4.28267451 24.42998544 -8.0625 24.4375 C-12 24 -12 24 -14.5 22 C-14.995 21.34 -15.49 20.68 -16 20 C-12.37 20.66 -8.74 21.32 -5 22 C-5 21.34 -5 20.68 -5 20 C-4.01 19.67 -3.02 19.34 -2 19 C-1.67 18.01 -1.34 17.02 -1 16 C-1.99 16 -2.98 16 -4 16 C-4.20086443 12.28400809 -4.1519437 11.22791555 -2 8 C-1.33841957 5.95415921 -1.33841957 5.95415921 -0.875 3.8125 C-0.441875 1.9253125 -0.441875 1.9253125 0 0 Z " fill="#3A98E4" transform="translate(86,265)"/>
<path d="M0 0 C0.06058594 0.56847656 0.12117188 1.13695312 0.18359375 1.72265625 C0.44693972 4.14949062 0.72325758 6.57466014 1 9 C1.0721875 9.69996094 1.144375 10.39992187 1.21875 11.12109375 C1.40921636 12.75706376 1.69647307 14.38118972 2 16 C2.66 16.33 3.32 16.66 4 17 C3.01 17 2.02 17 1 17 C-2 13.66666667 -2 13.66666667 -2 11 C-2.66 11 -3.32 11 -4 11 C-5.7265625 9.06640625 -5.7265625 9.06640625 -7.625 6.5625 C-8.25664062 5.73878906 -8.88828125 4.91507813 -9.5390625 4.06640625 C-11 2 -11 2 -11 1 C-3.375 -1.125 -3.375 -1.125 0 0 Z " fill="#5E1B84" transform="translate(397,159)"/>
<path d="M0 0 C0.16435547 1.90458984 0.16435547 1.90458984 0.33203125 3.84765625 C1.288344 14.41867757 2.64104462 24.63909795 5 35 C5.42539063 36.8871875 5.42539063 36.8871875 5.859375 38.8125 C6.55975455 41.87831235 7.27253536 44.94052105 8 48 C7.34 48 6.68 48 6 48 C5.52206155 46.32721543 5.04471988 44.65425817 4.5703125 42.98046875 C4.06657424 41.23118589 3.53534472 39.48987033 3 37.75 C1.89664624 33.6124234 1.1609125 29.48024609 0.46484375 25.2578125 C0.22413654 23.04080635 0.22413654 23.04080635 -1 22 C-1.15620555 20.58672053 -1.25056173 19.1664541 -1.31640625 17.74609375 C-1.37924805 16.46508789 -1.37924805 16.46508789 -1.44335938 15.15820312 C-1.48267578 14.26037109 -1.52199219 13.36253906 -1.5625 12.4375 C-1.60568359 11.53580078 -1.64886719 10.63410156 -1.69335938 9.70507812 C-1.79978142 7.47021515 -1.90179988 5.23523692 -2 3 C-3.32 2.67 -4.64 2.34 -6 2 C-2.25 0 -2.25 0 0 0 Z " fill="#E67E2F" transform="translate(88,286)"/>
<path d="M0 0 C1.98 0 3.96 0 6 0 C4.07535971 3.84928058 -1.19663292 4.50952932 -5.11328125 5.82421875 C-19.76599532 10.43369579 -35.06420755 9.82092539 -50 7 C-50 6.67 -50 6.34 -50 6 C-47.91673869 5.97290556 -45.83337559 5.95356127 -43.75 5.9375 C-42.58984375 5.92589844 -41.4296875 5.91429687 -40.234375 5.90234375 C-37 6 -37 6 -35.03979492 6.50488281 C-31.58399086 7.34370635 -28.08568578 6.99710026 -24.5625 6.8125 C-23.76714844 6.77133057 -22.97179687 6.73016113 -22.15234375 6.68774414 C-15.83891208 6.26080086 -10.38226165 4.96012061 -4.40625 2.83984375 C-2 2 -2 2 0 2 C0 1.34 0 0.68 0 0 Z " fill="#E77925" transform="translate(290,437)"/>
<path d="M0 0 C0.98436956 3.16456584 0.97576236 5.59951312 0.5625 8.875 C-0.14476054 15.14849282 -0.00068903 20.74569357 1 27 C1.99 27 2.98 27 4 27 C5.3271261 30.9813783 5.06915913 34.85045227 5 39 C-1.5742156 31.74569313 -3.03591717 23.53002287 -3 14 C-2.44931525 9.18302127 -1.53300052 4.59900157 0 0 Z " fill="#5BA629" transform="translate(223,24)"/>
<path d="M0 0 C7.78624662 7.11885405 12.53201758 15.69947429 13.21484375 26.3515625 C13.26596923 31.38458199 13.12740648 36.08123465 12 41 C9.37886891 37.06830336 10.11794315 35.39689982 10.875 30.8125 C11.07867187 29.54019531 11.28234375 28.26789063 11.4921875 26.95703125 C11.65976563 25.98121094 11.82734375 25.00539062 12 24 C11.34 24 10.68 24 10 24 C9.34 20.04 8.68 16.08 8 12 C7.34 12 6.68 12 6 12 C5.731875 11.195625 5.46375 10.39125 5.1875 9.5625 C4.795625 8.716875 4.40375 7.87125 4 7 C3.01 6.67 2.02 6.34 1 6 C0.67 4.02 0.34 2.04 0 0 Z " fill="#4799D8" transform="translate(67,153)"/>
<path d="M0 0 C4.29 0.99 8.58 1.98 13 3 C13 3.66 13 4.32 13 5 C16.56290354 4.69199513 20.12523558 4.37780401 23.6875 4.0625 C24.69490234 3.97548828 25.70230469 3.88847656 26.74023438 3.79882812 C28.20493164 3.66831055 28.20493164 3.66831055 29.69921875 3.53515625 C30.59471436 3.456604 31.49020996 3.37805176 32.4128418 3.29711914 C34.98298823 3.0019537 37.47186549 2.54387764 40 2 C34.29529258 6.7648014 26.69701271 7.43884907 19.4296875 7.2578125 C12.4871048 6.52113974 5.81417362 4.95745759 0 1 C0 0.67 0 0.34 0 0 Z " fill="#58A22D" transform="translate(239,73)"/>
<path d="M0 0 C0.33 1.32 0.66 2.64 1 4 C0.34 4 -0.32 4 -1 4 C-1.0825 4.94875 -1.165 5.8975 -1.25 6.875 C-2 10 -2 10 -4.0625 11.375 C-4.701875 11.58125 -5.34125 11.7875 -6 12 C-6 12.66 -6 13.32 -6 14 C-6.99 14.495 -6.99 14.495 -8 15 C-8.13277344 15.61359375 -8.26554687 16.2271875 -8.40234375 16.859375 C-9.16900754 19.60533421 -10.35900085 20.48720068 -12.5625 22.25 C-13.20316406 22.77078125 -13.84382813 23.2915625 -14.50390625 23.828125 C-14.99761719 24.21484375 -15.49132812 24.6015625 -16 25 C-16.66 24.67 -17.32 24.34 -18 24 C-17.63237549 23.55720703 -17.26475098 23.11441406 -16.88598633 22.65820312 C-15.18985735 20.60952448 -13.50117422 18.55482688 -11.8125 16.5 C-11.23435547 15.80390625 -10.65621094 15.1078125 -10.06054688 14.390625 C-6.3020139 9.8039407 -3.00839874 5.11058076 0 0 Z " fill="#EC8026" transform="translate(405,374)"/>
<path d="M0 0 C0 1.65 0 3.3 0 5 C-0.598125 5.020625 -1.19625 5.04125 -1.8125 5.0625 C-4.42410267 5.89357557 -4.42410267 5.89357557 -5.625 9.5 C-6.07875 10.655 -6.5325 11.81 -7 13 C-7.99 13.495 -7.99 13.495 -9 14 C-9.66 13.67 -10.32 13.34 -11 13 C-11 13.99 -11 14.98 -11 16 C-11.66 16 -12.32 16 -13 16 C-12.67 16.99 -12.34 17.98 -12 19 C-13.98 19.33 -15.96 19.66 -18 20 C-17.57847656 19.44570312 -17.15695313 18.89140625 -16.72265625 18.3203125 C-16.17480469 17.59585938 -15.62695312 16.87140625 -15.0625 16.125 C-14.24458984 15.04605469 -14.24458984 15.04605469 -13.41015625 13.9453125 C-11.96035376 12.05642921 -11.96035376 12.05642921 -11 10 C-10.34 10 -9.68 10 -9 10 C-8.79375 9.46375 -8.5875 8.9275 -8.375 8.375 C-6.93750621 5.89205618 -3.18977926 0 0 0 Z " fill="#3496D7" transform="translate(124,145)"/>
<path d="M0 0 C-1.25842768 3.77528304 -2.62493429 4.10667045 -6 6 C-6.66 6.66 -7.32 7.32 -8 8 C-8.825 8.144375 -9.65 8.28875 -10.5 8.4375 C-13.34936529 8.7765556 -13.34936529 8.7765556 -15 12 C-15.66 12 -16.32 12 -17 12 C-17.33 12.99 -17.66 13.98 -18 15 C-19.98 15.33 -21.96 15.66 -24 16 C-22.625 14 -22.625 14 -21 12 C-20.34 12 -19.68 12 -19 12 C-19 11.34 -19 10.68 -19 10 C-16.9411239 8.57187785 -14.90229066 7.2720176 -12.75 6 C-12.16347656 5.64421875 -11.57695312 5.2884375 -10.97265625 4.921875 C-2.80013993 0 -2.80013993 0 0 0 Z " fill="#E77E2E" transform="translate(229,293)"/>
<path d="M0 0 C0 0.33 0 0.66 0 1 C-1.05574219 1.03738281 -2.11148438 1.07476562 -3.19921875 1.11328125 C-12.90743057 1.52273721 -22.40261663 2.48155787 -32.00463867 3.98364258 C-36.04134694 4.61030196 -39.8984898 5.19450461 -44 5 C-34.03973327 -3.80265704 -12.39807869 -0.19130567 0 0 Z " fill="#4D9C17" transform="translate(270,105)"/>
<path d="M0 0 C3.3 0 6.6 0 10 0 C10.33 0.99 10.66 1.98 11 3 C12.32 3 13.64 3 15 3 C15 3.66 15 4.32 15 5 C17.64 5 20.28 5 23 5 C23 5.66 23 6.32 23 7 C25.31 7 27.62 7 30 7 C30.33 7.66 30.66 8.32 31 9 C24.19691511 8.4405585 18.07488845 7.07559562 11.5625 5.0625 C10.66595703 4.79759766 9.76941406 4.53269531 8.84570312 4.25976562 C2.25962189 2.25962189 2.25962189 2.25962189 0 0 Z " fill="#E6792B" transform="translate(193,460)"/>
<path d="M0 0 C-4.29 2.64 -8.58 5.28 -13 8 C-14.32 6.35 -15.64 4.7 -17 3 C-11.57774353 -0.11779747 -6.15178555 -2.05059518 0 0 Z " fill="#48A412" transform="translate(175,130)"/>
<path d="M0 0 C0.66 0.33 1.32 0.66 2 1 C2 2.98 2 4.96 2 7 C0 8 -2 9 -4 10 C-4 9.34 -4 8.68 -4 8 C-7.11332248 8.66868314 -7.11332248 8.66868314 -8.1875 11.0625 C-8.455625 11.701875 -8.72375 12.34125 -9 13 C-9.66 12.67 -10.32 12.34 -11 12 C-9.49650623 8.33213607 -7.36271208 6.31089607 -4.375 3.75 C-3.14910156 2.69039062 -3.14910156 2.69039062 -1.8984375 1.609375 C-1.27195312 1.07828125 -0.64546875 0.5471875 0 0 Z " fill="#359AE9" transform="translate(18,148)"/>
<path d="M0 0 C0.66 0.33 1.32 0.66 2 1 C0.71034824 2.37562854 -0.62689293 3.70766393 -2 5 C-2.66 5 -3.32 5 -4 5 C-4.66 6.98 -5.32 8.96 -6 11 C-7.11375 10.9690625 -7.11375 10.9690625 -8.25 10.9375 C-10.70462279 10.99328688 -12.66109261 11.3069904 -15 12 C-10.58990583 7.14889642 -5.41995647 3.651893 0 0 Z " fill="#58A527" transform="translate(157,117)"/>
<path d="M0 0 C0.66 0 1.32 0 2 0 C2.34717213 3.73210035 2.2922789 5.54070458 0.25 8.75 C-3.09599542 12.09599542 -4.82430773 12.87624292 -9.5625 13.375 C-10.696875 13.25125 -11.83125 13.1275 -13 13 C-13.99 11.68 -14.98 10.36 -16 9 C-11.71 9 -7.42 9 -3 9 C-2.01 6.03 -1.02 3.06 0 0 Z " fill="#4F8C27" transform="translate(398,147)"/>
<path d="M0 0 C3.465 1.98 3.465 1.98 7 4 C7 4.66 7 5.32 7 6 C8.98 6 10.96 6 13 6 C11.625 8.5 11.625 8.5 10 11 C9.34 11 8.68 11 8 11 C7.67 11.99 7.34 12.98 7 14 C6.67 12.68 6.34 11.36 6 10 C5.34 10 4.68 10 4 10 C4.33 8.35 4.66 6.7 5 5 C4.360625 4.731875 3.72125 4.46375 3.0625 4.1875 C1 3 1 3 0 0 Z " fill="#399DC8" transform="translate(124,152)"/>
<path d="M0 0 C0.99 0.33 1.98 0.66 3 1 C2.30654365 7.2484067 1.20358931 13.34403221 -0.0625 19.5 C-0.24876953 20.4178125 -0.43503906 21.335625 -0.62695312 22.28125 C-1.08198127 24.52138854 -1.53971267 26.76093726 -2 29 C-2.33 29 -2.66 29 -3 29 C-3.45755719 21.37404682 -1.74536299 14.3970146 0 7 C-0.66 7 -1.32 7 -2 7 C-1.67 6.01 -1.34 5.02 -1 4 C-0.34 4.33 0.32 4.66 1 5 C0.67 3.35 0.34 1.7 0 0 Z " fill="#4299DE" transform="translate(92,226)"/>
<path d="M0 0 C1.32 0.33 2.64 0.66 4 1 C1.41909233 2.31746333 -1.16450458 3.62909617 -3.75 4.9375 C-4.47960937 5.31068359 -5.20921875 5.68386719 -5.9609375 6.06835938 C-6.66992188 6.42607422 -7.37890625 6.78378906 -8.109375 7.15234375 C-9.08342285 7.6472229 -9.08342285 7.6472229 -10.07714844 8.15209961 C-12.03293079 9.01452116 -13.91540694 9.54374179 -16 10 C-15.75 8.125 -15.75 8.125 -15 6 C-11.82026536 3.64464101 -8.84875379 3.82505665 -5 4 C-5 3.34 -5 2.68 -5 2 C-3.35 2 -1.7 2 0 2 C0 1.34 0 0.68 0 0 Z " fill="#EB822D" transform="translate(352,447)"/>
<path d="M0 0 C5.14595054 0.57618751 9.55078055 1.74743278 14.4375 3.5625 C15.67371094 4.01753906 16.90992188 4.47257812 18.18359375 4.94140625 C19.11300781 5.29074219 20.04242188 5.64007813 21 6 C18 8 18 8 15.58984375 7.57421875 C14.71457031 7.28160156 13.83929688 6.98898437 12.9375 6.6875 C12.05964844 6.40261719 11.18179687 6.11773437 10.27734375 5.82421875 C6.44736523 4.43806872 3.38112301 2.25408201 0 0 Z " fill="#EC7F2B" transform="translate(276,288)"/>
<path d="M0 0 C-1 2 -1 2 -2.93359375 2.88671875 C-9.31999763 4.92917241 -14.40664941 5.16435766 -21 4 C-14.79018051 0.53066423 -7.03267459 -0.38014457 0 0 Z " fill="#5BA62D" transform="translate(238,89)"/>
<path d="M0 0 C2.66666667 0 5.33333333 0 8 0 C8 0.66 8 1.32 8 2 C8.66 2.33 9.32 2.66 10 3 C8.29171079 5.10633718 7.47851584 5.93801608 4.73828125 6.29296875 C3.93777344 6.25816406 3.13726562 6.22335938 2.3125 6.1875 C1.50425781 6.16042969 0.69601562 6.13335937 -0.13671875 6.10546875 C-0.75160156 6.07066406 -1.36648438 6.03585938 -2 6 C-1.01 5.01 -0.02 4.02 1 3 C0.67 2.01 0.34 1.02 0 0 Z " fill="#722E9C" transform="translate(479,217)"/>
<path d="M0 0 C5.55216953 2.52371342 8.514344 7.20847864 12 12 C11.34 13.32 10.68 14.64 10 16 C9.938125 15.443125 9.87625 14.88625 9.8125 14.3125 C8.64834483 10.99913528 6.60541556 9.29524704 4 7 C3.01 6.67 2.02 6.34 1 6 C0.67 4.02 0.34 2.04 0 0 Z " fill="#5AA52A" transform="translate(283,6)"/>
<path d="M0 0 C-15.56036446 5.55580866 -15.56036446 5.55580866 -24 6 C-24 5.34 -24 4.68 -24 4 C-23.39414062 3.89042969 -22.78828125 3.78085937 -22.1640625 3.66796875 C-16.69370495 2.63280878 -11.49355946 1.29827532 -6.2265625 -0.51171875 C-3.76942569 -1.05056454 -2.35700312 -0.80181156 0 0 Z " fill="#E77A25" transform="translate(327,461)"/>
<path d="M0 0 C2 0 2 0 3.625 1.3125 C5 3 5 3 5 6 C7.97 6 10.94 6 14 6 C14.33 5.01 14.66 4.02 15 3 C15.66 3 16.32 3 17 3 C15.125 6.875 15.125 6.875 14 8 C6.85219707 8.46870839 6.85219707 8.46870839 3.5 6.625 C2 5 2 5 2 3 C1.34 3 0.68 3 0 3 C0 2.01 0 1.02 0 0 Z " fill="#781161" transform="translate(434,281)"/>
<path d="M0 0 C1.31354934 3.94064801 0.30975532 5.3016095 -1.3125 9.0625 C-1.98732422 10.65771484 -1.98732422 10.65771484 -2.67578125 12.28515625 C-4 15 -4 15 -6 17 C-6 16.34 -6 15.68 -6 15 C-6.66 15 -7.32 15 -8 15 C-7 12 -7 12 -5.5625 10.25 C-3.54988937 7.35184069 -2.95492019 4.37405134 -2 1 C-1.34 0.67 -0.68 0.34 0 0 Z " fill="#6A2E90" transform="translate(520,189)"/>
<path d="M0 0 C0.33 0 0.66 0 1 0 C1.33333333 15.33333333 1.33333333 15.33333333 -2 22 C-4 19 -4 19 -3.828125 16.58203125 C-3.63734375 15.66808594 -3.4465625 14.75414062 -3.25 13.8125 C-3.05148438 12.843125 -2.85296875 11.87375 -2.6484375 10.875 C-1.82651993 7.23083534 -0.95409513 3.61193157 0 0 Z " fill="#55A4E4" transform="translate(76,223)"/>
<path d="M0 0 C0 0.66 0 1.32 0 2 C-0.66 2.66 -1.32 3.32 -2 4 C-2.33 4.66 -2.66 5.32 -3 6 C-3.99 6.45375 -4.98 6.9075 -6 7.375 C-9.13408271 8.65905291 -9.13408271 8.65905291 -9.875 11.1875 C-9.91625 11.785625 -9.9575 12.38375 -10 13 C-11.32 12.34 -12.64 11.68 -14 11 C-3.27808989 0 -3.27808989 0 0 0 Z " fill="#5DA62C" transform="translate(142,129)"/>
<path d="M0 0 C1.98 0 3.96 0 6 0 C4.06016415 3.8796717 -1.36925437 4.54383392 -5.3203125 5.890625 C-9.6394402 7.19278239 -13.50849503 7.76768078 -18 8 C-14.81099544 5.87399696 -12.09585431 4.97863761 -8.4375 3.875 C-7.28121094 3.52179688 -6.12492187 3.16859375 -4.93359375 2.8046875 C-2 2 -2 2 0 2 C0 1.34 0 0.68 0 0 Z " fill="#E77E31" transform="translate(290,437)"/>
<path d="M0 0 C0.33 0.66 0.66 1.32 1 2 C-0.38102507 4.76205013 -2.52778499 5.42259251 -5.16015625 6.84375 C-7.2987397 8.08314153 -7.2987397 8.08314153 -9.6875 10.8125 C-10.450625 11.534375 -11.21375 12.25625 -12 13 C-13.32 12.67 -14.64 12.34 -16 12 C-10.72 8.04 -5.44 4.08 0 0 Z " fill="#EB893A" transform="translate(371,413)"/>
<path d="M0 0 C0.33 0.99 0.66 1.98 1 3 C-3.49258808 6.36944106 -6.56305587 6.6041049 -12 6 C-14.5 4 -14.5 4 -16 2 C-12.37 2.66 -8.74 3.32 -5 4 C-5 3.34 -5 2.68 -5 2 C-3.35 1.34 -1.7 0.68 0 0 Z " fill="#6D869B" transform="translate(86,283)"/>
<path d="M0 0 C0.99 0 1.98 0 3 0 C1.728373 6.1038096 -0.84996685 10.34179953 -5 15 C-5.33 15 -5.66 15 -6 15 C-6 13.35 -6 11.7 -6 10 C-5.34 10 -4.68 10 -4 10 C-3.87625 9.360625 -3.7525 8.72125 -3.625 8.0625 C-3.41875 7.381875 -3.2125 6.70125 -3 6 C-2.34 5.67 -1.68 5.34 -1 5 C-0.34444881 2.47266765 -0.34444881 2.47266765 0 0 Z " fill="#3F9BE3" transform="translate(75,195)"/>
<path d="M0 0 C-1.02694398 2.97813753 -1.93454179 3.95791972 -4.625 5.6875 C-8.54129358 7.21050306 -11.82540954 7.64012151 -16 8 C-13.10414095 5.70351643 -10.1827969 3.95652443 -6.875 2.3125 C-5.57175781 1.65701172 -5.57175781 1.65701172 -4.2421875 0.98828125 C-2 0 -2 0 0 0 Z " fill="#63A832" transform="translate(183,104)"/>
<path d="M0 0 C0.99 0.33 1.98 0.66 3 1 C1.69118353 2.66956087 0.37785174 4.33558304 -0.9375 6 C-1.66839844 6.928125 -2.39929688 7.85625 -3.15234375 8.8125 C-3.76207031 9.534375 -4.37179687 10.25625 -5 11 C-5.33 11 -5.66 11 -6 11 C-6 9.35 -6 7.7 -6 6 C-5.01 6 -4.02 6 -3 6 C-3.66 4.35 -4.32 2.7 -5 1 C-3.02 1.495 -3.02 1.495 -1 2 C-0.67 1.34 -0.34 0.68 0 0 Z " fill="#ED832E" transform="translate(413,394)"/>
<path d="M0 0 C2 3.75 2 3.75 2 6 C1.525625 6.433125 1.05125 6.86625 0.5625 7.3125 C-1.22985458 8.94007936 -1.22985458 8.94007936 -1.4375 11.5625 C-1.623125 12.366875 -1.80875 13.17125 -2 14 C-4.03515625 15.15234375 -4.03515625 15.15234375 -6 16 C-4.25192871 10.53262809 -2.34205919 5.24175152 0 0 Z " fill="#E98033" transform="translate(421,343)"/>
<path d="M0 0 C1.22419163 3.93795909 0.48320272 6.16112237 -1 10 C-1.66 10 -2.32 10 -3 10 C-3.33 12.31 -3.66 14.62 -4 17 C-4.99 17.33 -5.98 17.66 -7 18 C-5.06375702 11.79522136 -2.74390859 5.89174281 0 0 Z " fill="#529FDD" transform="translate(86,198)"/>
<path d="M0 0 C3.63195496 1.21065165 4.42896192 2.53691126 6.6875 5.5625 C7.31011719 6.38878906 7.93273437 7.21507812 8.57421875 8.06640625 C9.04472656 8.70449219 9.51523437 9.34257812 10 10 C9.67 10.66 9.34 11.32 9 12 C7.125 11.3125 7.125 11.3125 5 10 C4.31867549 8.33927151 3.65257873 6.672233 3 5 C0.98682781 3.19651922 0.98682781 3.19651922 -1 2 C-0.67 1.34 -0.34 0.68 0 0 Z " fill="#6D398E" transform="translate(406,155)"/>
<path d="M0 0 C2.4375 0.8125 2.4375 0.8125 5 2 C5.33 2.99 5.66 3.98 6 5 C7.32 5 8.64 5 10 5 C10.33 6.98 10.66 8.96 11 11 C6.86378916 7.6189962 3.18683431 4.33409466 0 0 Z " fill="#EA7D2B" transform="translate(122,413)"/>
<path d="M0 0 C0 3 0 3 -1 6 C-0.34 6.33 0.32 6.66 1 7 C1 9.31 1 11.62 1 14 C-1 13 -1 13 -3 11 C-3.54227359 8.26009134 -3.49753177 5.74500289 -3 3 C-1.5 1 -1.5 1 0 0 Z " fill="#42A231" transform="translate(127,141)"/>
<path d="M0 0 C6.43082787 1.28616557 11.40420264 3.60625252 17 7 C17 7.33 17 7.66 17 8 C15.35 8 13.7 8 12 8 C11.67 7.34 11.34 6.68 11 6 C9.17489003 5.21984379 7.31393324 4.52204594 5.4375 3.875 C4.42558594 3.52179688 3.41367187 3.16859375 2.37109375 2.8046875 C1.19740234 2.40636719 1.19740234 2.40636719 0 2 C0 1.34 0 0.68 0 0 Z " fill="#4B9ADA" transform="translate(48,143)"/>
<path d="M0 0 C0.66 0 1.32 0 2 0 C7.55580866 11.52164009 7.55580866 11.52164009 8 17 C5.55185821 13.9703348 3.90547147 10.92450401 2.3125 7.375 C1.87550781 6.41335938 1.43851562 5.45171875 0.98828125 4.4609375 C0 2 0 2 0 0 Z " fill="#E87F30" transform="translate(83,353)"/>
<path d="M0 0 C1.32 0.66 2.64 1.32 4 2 C2.9375 3.5 2.9375 3.5 1 5 C-2.6875 5.1875 -2.6875 5.1875 -6 5 C-6 4.34 -6 3.68 -6 3 C-6.99 2.67 -7.98 2.34 -9 2 C-7.6078125 2.061875 -7.6078125 2.061875 -6.1875 2.125 C-2.84190281 2.27136339 -2.84190281 2.27136339 0 0 Z " fill="#40A130" transform="translate(137,153)"/>
<path d="M0 0 C0.99 0.33 1.98 0.66 3 1 C3 1.66 3 2.32 3 3 C3.8353125 3.3403125 3.8353125 3.3403125 4.6875 3.6875 C7.63246684 5.35896766 9.68156544 7.55276352 12 10 C10.35 9.67 8.7 9.34 7 9 C7 8.34 7 7.68 7 7 C6.01 7 5.02 7 4 7 C0 2.65714286 0 2.65714286 0 0 Z " fill="#67A63E" transform="translate(376,126)"/>
<path d="M0 0 C4.29 0.99 8.58 1.98 13 3 C13 3.66 13 4.32 13 5 C13.99 5.33 14.98 5.66 16 6 C9.58076669 5.70887831 5.37899794 4.54784971 0 1 C0 0.67 0 0.34 0 0 Z " fill="#69AB3B" transform="translate(239,73)"/>
<path d="M0 0 C1.65 0 3.3 0 5 0 C3.625 2 3.625 2 2 4 C1.34 4 0.68 4 0 4 C0 4.66 0 5.32 0 6 C-1.32 6.33 -2.64 6.66 -4 7 C-3.67 5.35 -3.34 3.7 -3 2 C-2.01 2 -1.02 2 0 2 C0 1.34 0 0.68 0 0 Z " fill="#5BA62B" transform="translate(286,66)"/>
<path d="M0 0 C3.54243452 1.36591169 6.92627929 2.90931484 10.3125 4.625 C11.63701172 5.29402344 11.63701172 5.29402344 12.98828125 5.9765625 C13.65214844 6.31429688 14.31601563 6.65203125 15 7 C11.8018885 8.03387225 11.24105866 8.11048522 8 6.625 C7.01 6.08875 6.02 5.5525 5 5 C2.76474965 4.31363375 2.76474965 4.31363375 1 4 C0.67 2.68 0.34 1.36 0 0 Z " fill="#E88336" transform="translate(170,428)"/>
<path d="M0 0 C-1.25842768 3.77528304 -2.62493429 4.10667045 -6 6 C-6.66 6.66 -7.32 7.32 -8 8 C-8.99 7.67 -9.98 7.34 -11 7 C-10 4 -10 4 -8.22265625 2.83203125 C-7.50980469 2.49558594 -6.79695312 2.15914063 -6.0625 1.8125 C-5.35222656 1.46832031 -4.64195312 1.12414062 -3.91015625 0.76953125 C-2 0 -2 0 0 0 Z " fill="#EB7A22" transform="translate(229,293)"/>
<path d="M0 0 C4.875 4.75 4.875 4.75 6 7 C4.35 7 2.7 7 1 7 C1 7.66 1 8.32 1 9 C-0.65 9.66 -2.3 10.32 -4 11 C-3.525625 10.29875 -3.05125 9.5975 -2.5625 8.875 C-0.91260143 5.83918663 -0.39631536 3.40831214 0 0 Z " fill="#56187A" transform="translate(400,147)"/>
<path d="M0 0 C3.3 0 6.6 0 10 0 C10.33 0.99 10.66 1.98 11 3 C13.01508358 3.73323796 13.01508358 3.73323796 15 4 C9.1977825 4.36263859 5.36000789 3.25684543 0 1 C0 0.67 0 0.34 0 0 Z " fill="#ED751D" transform="translate(193,460)"/>
<path d="M0 0 C-3.4352048 2.29013653 -4.985331 2.17842973 -9 2 C-9 2.99 -9 3.98 -9 5 C-11.97 4.505 -11.97 4.505 -15 4 C-10.85384107 0.35138015 -5.42017988 -2.16807195 0 0 Z " fill="#ED7B1F" transform="translate(313,447)"/>
<path d="M0 0 C1.32 0.33 2.64 0.66 4 1 C2.58833114 1.98635837 1.17043816 2.96381255 -0.25 3.9375 C-1.43335938 4.75541016 -1.43335938 4.75541016 -2.640625 5.58984375 C-4.82636993 6.89622441 -6.5153801 7.54980511 -9 8 C-9 7.34 -9 6.68 -9 6 C-8.01 6 -7.02 6 -6 6 C-5.67 5.01 -5.34 4.02 -5 3 C-3.35 2.67 -1.7 2.34 0 2 C0 1.34 0 0.68 0 0 Z " fill="#EA7E2C" transform="translate(305,429)"/>
<path d="M0 0 C0.33 0 0.66 0 1 0 C1 4.62 1 9.24 1 14 C0.01 14.495 0.01 14.495 -1 15 C-2.4002792 9.53891111 -1.42705634 5.30723432 0 0 Z " fill="#571270" transform="translate(452,269)"/>
<path d="M0 0 C3.7952131 1.49097658 5.61042731 3.75700849 8 7 C7.236875 6.835 6.47375 6.67 5.6875 6.5 C2.96403764 5.90854604 2.96403764 5.90854604 0 6 C0 4.02 0 2.04 0 0 Z " fill="#5A9E21" transform="translate(392,140)"/>
<path d="M0 0 C3.63 2.31 7.26 4.62 11 7 C8 8 8 8 5 7 C4.01 7 3.02 7 2 7 C2.33 5.68 2.66 4.36 3 3 C2.01 3 1.02 3 0 3 C0 2.01 0 1.02 0 0 Z " fill="#EB7D26" transform="translate(153,416)"/>
<path d="M0 0 C3.25263769 3.25263769 4.48854809 5.69236207 6 10 C5.6875 12.4375 5.6875 12.4375 5 14 C5 13.34 5 12.68 5 12 C4.01 11.67 3.02 11.34 2 11 C1.34 7.37 0.68 3.74 0 0 Z " fill="#E87B27" transform="translate(330,328)"/>
<path d="M0 0 C0.33 1.32 0.66 2.64 1 4 C0.34 4 -0.32 4 -1 4 C-1.0825 4.94875 -1.165 5.8975 -1.25 6.875 C-2 10 -2 10 -4.0625 11.375 C-4.701875 11.58125 -5.34125 11.7875 -6 12 C-5.36934243 8.78147169 -4.21979305 6.49198931 -2.4375 3.75 C-1.98246094 3.04359375 -1.52742188 2.3371875 -1.05859375 1.609375 C-0.53458984 0.81273437 -0.53458984 0.81273437 0 0 Z " fill="#EC8638" transform="translate(405,374)"/>
<path d="M0 0 C3.25524265 3.02272532 5.61820737 6.25718301 8 10 C7.67 10.66 7.34 11.32 7 12 C6.34 11.67 5.68 11.34 5 11 C5 10.34 5 9.68 5 9 C4.01 9.33 3.02 9.66 2 10 C2 8.35 2 6.7 2 5 C1.34 4.67 0.68 4.34 0 4 C0 2.68 0 1.36 0 0 Z " fill="#EB8333" transform="translate(322,315)"/>
<path d="M0 0 C1.953125 0.8359375 1.953125 0.8359375 4 2 C4.75 4.625 4.75 4.625 5 7 C5.99 7.33 6.98 7.66 8 8 C8 9.98 8 11.96 8 14 C5.66635648 11.07096942 3.95039164 8.11431797 2.3125 4.75 C1.65701172 3.41195312 1.65701172 3.41195312 0.98828125 2.046875 C0.66214844 1.37140625 0.33601563 0.6959375 0 0 Z " fill="#652D85" transform="translate(410,193)"/>
<path d="M0 0 C0.66 0.99 1.32 1.98 2 3 C1.34 3 0.68 3 0 3 C0 3.99 0 4.98 0 6 C-0.66 6 -1.32 6 -2 6 C-1.67 6.99 -1.34 7.98 -1 9 C-2.98 9.33 -4.96 9.66 -7 10 C-6.57847656 9.44570312 -6.15695313 8.89140625 -5.72265625 8.3203125 C-5.17480469 7.59585938 -4.62695312 6.87140625 -4.0625 6.125 C-3.51722656 5.40570313 -2.97195312 4.68640625 -2.41015625 3.9453125 C-0.96035376 2.05642921 -0.96035376 2.05642921 0 0 Z " fill="#4BA1E0" transform="translate(113,155)"/>
<path d="M0 0 C3.625 -0.1875 3.625 -0.1875 7 0 C5.35 1.65 3.7 3.3 2 5 C0.68 4.34 -0.64 3.68 -2 3 C-1.34 2.01 -0.68 1.02 0 0 Z " fill="#590F80" transform="translate(463,146)"/>
<path d="M0 0 C1.43861294 0.08746284 2.87597508 0.19565348 4.3125 0.3125 C5.11300781 0.37050781 5.91351563 0.42851563 6.73828125 0.48828125 C9.36272334 1.08206694 10.30820672 1.95780294 12 4 C9.5332355 4.88336837 8.36140628 5.1312406 5.859375 4.22265625 C5.16328125 3.83980469 4.4671875 3.45695312 3.75 3.0625 C3.04359375 2.68222656 2.3371875 2.30195312 1.609375 1.91015625 C1.07828125 1.60980469 0.5471875 1.30945313 0 1 C0 0.67 0 0.34 0 0 Z " fill="#68AD3A" transform="translate(332,122)"/>
<path d="M0 0 C2.97 0 5.94 0 9 0 C5.93024413 2.04650391 3.30915848 2.99704565 -0.1875 4.125 C-1.27417969 4.47820312 -2.36085937 4.83140625 -3.48046875 5.1953125 C-4.31191406 5.46085937 -5.14335937 5.72640625 -6 6 C-5.67 5.01 -5.34 4.02 -5 3 C-3.35 2.67 -1.7 2.34 0 2 C0 1.34 0 0.68 0 0 Z " fill="#67AC3C" transform="translate(204,113)"/>
<path d="M0 0 C0.69738281 0.01353516 1.39476562 0.02707031 2.11328125 0.04101562 C3.82585541 0.0762055 5.53802941 0.13000845 7.25 0.1875 C7.25 0.5175 7.25 0.8475 7.25 1.1875 C5.02149723 1.52524332 2.79216533 1.8575187 0.5625 2.1875 C-1.29955078 2.4659375 -1.29955078 2.4659375 -3.19921875 2.75 C-6.10886371 3.10850411 -8.82700022 3.27692256 -11.75 3.1875 C-8.17517469 -0.32283104 -4.73451742 -0.1745238 0 0 Z " fill="#63A534" transform="translate(237.75,106.8125)"/>
<path d="M0 0 C0.33 0 0.66 0 1 0 C1.08107583 1.93681161 1.13922475 3.8745934 1.1875 5.8125 C1.23970703 7.43091797 1.23970703 7.43091797 1.29296875 9.08203125 C1 12 1 12 -0.51171875 13.88671875 C-1.00285156 14.25410156 -1.49398438 14.62148438 -2 15 C-1.03644647 4.44191344 -1.03644647 4.44191344 0 0 Z " fill="#E88431" transform="translate(432,301)"/>
<path d="M0 0 C0.66 0 1.32 0 2 0 C2 1.98 2 3.96 2 6 C1.01 6.495 1.01 6.495 0 7 C-0.65772428 10.02934491 -0.65772428 10.02934491 -1 13 C-1.66 13 -2.32 13 -3 13 C-2.68991116 11.39536551 -2.37683713 9.79130769 -2.0625 8.1875 C-1.88847656 7.29417969 -1.71445312 6.40085938 -1.53515625 5.48046875 C-1 3 -1 3 0 0 Z " fill="#6A2F8B" transform="translate(444,166)"/>
<path d="M0 0 C0.66 0 1.32 0 2 0 C2.34907695 3.75257718 2.27011863 5.56588078 0.25 8.8125 C-1.96538462 10.96634616 -2.98673462 11.67715014 -6 12 C-5.38125 11.505 -4.7625 11.01 -4.125 10.5 C-1.25011778 7.11778563 -0.86548583 4.32742915 0 0 Z " fill="#536442" transform="translate(398,147)"/>
<path d="M0 0 C2.97 0.495 2.97 0.495 6 1 C6 1.99 6 2.98 6 4 C7.32 4.33 8.64 4.66 10 5 C9.67 5.99 9.34 6.98 9 8 C7.49712782 6.85793642 5.99776716 5.71125043 4.5 4.5625 C3.6646875 3.92441406 2.829375 3.28632813 1.96875 2.62890625 C1.3190625 2.09136719 0.669375 1.55382812 0 1 C0 0.67 0 0.34 0 0 Z " fill="#E8873C" transform="translate(133,424)"/>
<path d="M0 0 C1 3 1 3 0.22265625 5.04296875 C-0.16019531 5.75066406 -0.54304688 6.45835937 -0.9375 7.1875 C-1.31777344 7.90292969 -1.69804688 8.61835938 -2.08984375 9.35546875 C-2.54037109 10.16951172 -2.54037109 10.16951172 -3 11 C-4.0625 9.1875 -4.0625 9.1875 -5 7 C-3.88820837 3.66462511 -2.52588702 2.36292656 0 0 Z " fill="#4A9DE1" transform="translate(104,203)"/>
<path d="M0 0 C0.33 0.66 0.66 1.32 1 2 C-0.1875 5.5625 -0.1875 5.5625 -2 9 C-4.1875 9.9375 -4.1875 9.9375 -6 10 C-4.34832443 6.4213696 -2.21713508 3.25179812 0 0 Z " fill="#409DE1" transform="translate(105,166)"/>
<path d="M0 0 C0.33 0.66 0.66 1.32 1 2 C0.22265625 4.1640625 0.22265625 4.1640625 -0.9375 6.625 C-1.31777344 7.44226563 -1.69804687 8.25953125 -2.08984375 9.1015625 C-2.39019531 9.72804688 -2.69054687 10.35453125 -3 11 C-3.33 11 -3.66 11 -4 11 C-4.36630156 7.06225823 -4.30233203 5.43460229 -2 2.125 C-1.34 1.42375 -0.68 0.7225 0 0 Z " fill="#EA8132" transform="translate(335,392)"/>
<path d="M0 0 C3.2542015 2.83430453 4.5206753 4.68607774 5 9 C2.5 6.75 2.5 6.75 0 4 C0 2.68 0 1.36 0 0 Z " fill="#6E358E" transform="translate(449,203)"/>
<path d="M0 0 C-0.33 1.98 -0.66 3.96 -1 6 C-3.31 5.34 -5.62 4.68 -8 4 C-2.7826087 0 -2.7826087 0 0 0 Z " fill="#3E9BE4" transform="translate(28,144)"/>
<path d="M0 0 C-1.77444972 2.24606427 -2.58352485 2.95081002 -5.48046875 3.29296875 C-6.37378906 3.25816406 -7.26710938 3.22335938 -8.1875 3.1875 C-9.08855469 3.16042969 -9.98960938 3.13335937 -10.91796875 3.10546875 C-11.94857422 3.05326172 -11.94857422 3.05326172 -13 3 C-13 2.34 -13 1.68 -13 1 C-8.61414671 0.29826347 -4.44209357 -0.10834375 0 0 Z " fill="#4D9FDB" transform="translate(43,142)"/>
<path d="M0 0 C-1.69179328 2.04219706 -2.63727666 2.91793306 -5.26171875 3.51171875 C-6.06222656 3.56972656 -6.86273438 3.62773438 -7.6875 3.6875 C-8.49574219 3.75324219 -9.30398437 3.81898437 -10.13671875 3.88671875 C-11.05904297 3.94279297 -11.05904297 3.94279297 -12 4 C-8.71298741 1.21868166 -4.24676932 -2.12338466 0 0 Z " fill="#62A734" transform="translate(196,100)"/>
<path d="M0 0 C0 0.99 0 1.98 0 3 C-5.45769231 6.10096154 -5.45769231 6.10096154 -8.203125 5.58984375 C-8.79609375 5.39519531 -9.3890625 5.20054687 -10 5 C-8.71186658 4.16121545 -7.41936744 3.32913217 -6.125 2.5 C-5.40570313 2.0359375 -4.68640625 1.571875 -3.9453125 1.09375 C-2 0 -2 0 0 0 Z " fill="#EA7D31" transform="translate(355,426)"/>
<path d="M0 0 C2.64 0 5.28 0 8 0 C8 1.65 8 3.3 8 5 C5.04590299 3.62845496 2.55991624 2.01136276 0 0 Z " fill="#65AA3D" transform="translate(349,131)"/>
<path d="M0 0 C0 3.15081975 -0.27898465 4.41847698 -2 7 C-4.125 7.75 -4.125 7.75 -6 8 C-4.26440562 4.942048 -2.61527381 2.36620011 0 0 Z " fill="#EB8332" transform="translate(204,309)"/>
<path d="M0 0 C3.3 0.33 6.6 0.66 10 1 C9.67 1.99 9.34 2.98 9 4 C6.36 3.67 3.72 3.34 1 3 C0.67 2.01 0.34 1.02 0 0 Z " fill="#EF6925" transform="translate(438,288)"/>
<path d="M0 0 C6.625 0.75 6.625 0.75 10 3 C6.18510326 4.46726798 3.70988378 3.43336419 0 2 C0 1.34 0 0.68 0 0 Z " fill="#6B3288" transform="translate(465,218)"/>
<path d="M0 0 C0.99 0.33 1.98 0.66 3 1 C2.67 3.64 2.34 6.28 2 9 C1.01 8.01 0.02 7.02 -1 6 C-0.67 5.67 -0.34 5.34 0 5 C0.04063832 3.33382885 0.042721 1.66611905 0 0 Z " fill="#2C97EA" transform="translate(1,184)"/>
<path d="M0 0 C1.65 0 3.3 0 5 0 C5.625 1.875 5.625 1.875 6 4 C5.34 4.66 4.68 5.32 4 6 C2.68 4.02 1.36 2.04 0 0 Z " fill="#692A8E" transform="translate(387,161)"/>
<path d="M0 0 C1.32 0.33 2.64 0.66 4 1 C-0.455 3.97 -0.455 3.97 -5 7 C-5 5.35 -5 3.7 -5 2 C-3.68 2.33 -2.36 2.66 -1 3 C-0.67 2.01 -0.34 1.02 0 0 Z " fill="#5DA22E" transform="translate(157,138)"/>
<path d="M0 0 C-2.97 1.65 -5.94 3.3 -9 5 C-9 3.68 -9 2.36 -9 1 C-3.375 -1.125 -3.375 -1.125 0 0 Z " fill="#5EA931" transform="translate(175,130)"/>
<path d="M0 0 C1.65 0 3.3 0 5 0 C3.8141763 3.37503669 2.72426311 5.64722731 0 8 C0 5.33333333 0 2.66666667 0 0 Z " fill="#5EAB2F" transform="translate(291,58)"/>
<path d="M0 0 C4.7517398 0.43197635 6.92000054 1.32769295 10 5 C5.75354935 5 3.61475228 3.18249194 0 1 C0 0.67 0 0.34 0 0 Z " fill="#E88A3B" transform="translate(160,444)"/>
<path d="M0 0 C1.875 0.125 1.875 0.125 4 1 C5.125 4 5.125 4 6 7 C6.66 7.33 7.32 7.66 8 8 C7.01 8 6.02 8 5 8 C3.61328125 6.50390625 3.61328125 6.50390625 2.3125 4.5625 C1.87550781 3.92441406 1.43851562 3.28632813 0.98828125 2.62890625 C0 1 0 1 0 0 Z " fill="#EA843B" transform="translate(103,390)"/>
<path d="M0 0 C0.66 0 1.32 0 2 0 C0.125 3.875 0.125 3.875 -1 5 C-3.67058851 5.14115161 -6.32432238 5.04247107 -9 5 C-5.91190305 3.23537317 -4.76687864 3 -1 3 C-0.67 2.01 -0.34 1.02 0 0 Z " fill="#85154C" transform="translate(449,284)"/>
<path d="M0 0 C1.32 0.33 2.64 0.66 4 1 C4 2.98 4 4.96 4 7 C3.34 6.01 2.68 5.02 2 4 C0.68 4.33 -0.64 4.66 -2 5 C-1.34 3.35 -0.68 1.7 0 0 Z " fill="#49A213" transform="translate(394,145)"/>
<path d="M0 0 C3.5786304 1.65167557 6.74820188 3.78286492 10 6 C9.01 6.33 8.02 6.66 7 7 C5 5.625 5 5.625 3 4 C2.01 3.67 1.02 3.34 0 3 C0 2.01 0 1.02 0 0 Z " fill="#61A132" transform="translate(364,118)"/>
<path d="M0 0 C1.09658936 3.28976808 0.79953138 4.71303767 0 8 C-0.99 8 -1.98 8 -3 8 C-3 8.66 -3 9.32 -3 10 C-3.66 9.67 -4.32 9.34 -5 9 C-3.35 6.03 -1.7 3.06 0 0 Z " fill="#EA8332" transform="translate(411,364)"/>
<path d="M0 0 C0.66 0.33 1.32 0.66 2 1 C2 2.65 2 4.3 2 6 C1.34 6 0.68 6 0 6 C0 6.99 0 7.98 0 9 C-0.66 9 -1.32 9 -2 9 C-1.34 6.03 -0.68 3.06 0 0 Z " fill="#EB802C" transform="translate(429,318)"/>
<path d="M0 0 C0.66 0 1.32 0 2 0 C1.01 3.3 0.02 6.6 -1 10 C-1.33 10 -1.66 10 -2 10 C-1.85950482 8.52031676 -1.71245174 7.04125484 -1.5625 5.5625 C-1.48128906 4.73878906 -1.40007812 3.91507813 -1.31640625 3.06640625 C-1 1 -1 1 0 0 Z " fill="#449ADC" transform="translate(98,215)"/>
<path d="M0 0 C0.99 0 1.98 0 3 0 C1.89470285 4.50621146 1.34905453 6.65094547 -2 10 C-1.34 6.7 -0.68 3.4 0 0 Z " fill="#60A7DD" transform="translate(75,195)"/>
<path d="M0 0 C0.66 0 1.32 0 2 0 C3 3 3 3 2.0625 5.1875 C1.5365625 6.0846875 1.5365625 6.0846875 1 7 C0.34 7 -0.32 7 -1 7 C-1 8.65 -1 10.3 -1 12 C-1.33 12 -1.66 12 -2 12 C-2 10.02 -2 8.04 -2 6 C-1.34 6 -0.68 6 0 6 C0 4.02 0 2.04 0 0 Z " fill="#520F7B" transform="translate(443,173)"/>
<path d="M0 0 C2.64752004 2.57784846 4.94432065 4.91648098 7 8 C5.02 7.34 3.04 6.68 1 6 C0.67 4.02 0.34 2.04 0 0 Z " fill="#4FA1E1" transform="translate(67,153)"/>
<path d="M0 0 C0.66 0.33 1.32 0.66 2 1 C0.35 2.65 -1.3 4.3 -3 6 C-3.99 5.67 -4.98 5.34 -6 5 C-4.02 3.35 -2.04 1.7 0 0 Z " fill="#3C99DC" transform="translate(18,148)"/>
<path d="M0 0 C0 1.32 0 2.64 0 4 C-5.75 5.125 -5.75 5.125 -8 4 C-2.25 0 -2.25 0 0 0 Z " fill="#6BAA3A" transform="translate(167,112)"/>
<path d="M0 0 C2.91517292 1.07401108 4.77810176 1.77810176 7 4 C4.36 4.33 1.72 4.66 -1 5 C-0.34 4.67 0.32 4.34 1 4 C0.67 2.68 0.34 1.36 0 0 Z " fill="#5AA429" transform="translate(352,111)"/>
<path d="M0 0 C1.32 0 2.64 0 4 0 C3.39816251 2.02045442 2.72693904 4.02111039 2 6 C1.01 6.495 1.01 6.495 0 7 C0 4.69 0 2.38 0 0 Z " fill="#49A0E3" transform="translate(111,185)"/>
<path d="M0 0 C1.32 0.33 2.64 0.66 4 1 C4 1.66 4 2.32 4 3 C4.9590625 3.1546875 4.9590625 3.1546875 5.9375 3.3125 C6.618125 3.539375 7.29875 3.76625 8 4 C8.33 4.99 8.66 5.98 9 7 C5.18315774 5.44499019 2.80804268 2.96404505 0 0 Z " fill="#76B14A" transform="translate(230,66)"/>
<path d="M0 0 C2.89932357 2.39509338 3.50168276 4.31245243 4 8 C3.01 8.495 3.01 8.495 2 9 C0.50178941 5.62902617 0 3.79557881 0 0 Z " fill="#5FA933" transform="translate(295,20)"/>
<path d="M0 0 C1.99097846 2.98646769 2.94124926 5.59687262 4 9 C3.34 9 2.68 9 2 9 C2 8.34 2 7.68 2 7 C1.34 7 0.68 7 0 7 C0 4.69 0 2.38 0 0 Z " fill="#E88535" transform="translate(101,348)"/>
<path d="M0 0 C0.66 0 1.32 0 2 0 C1.34 3.3 0.68 6.6 0 10 C-0.33 10 -0.66 10 -1 10 C-1.125 2.25 -1.125 2.25 0 0 Z " fill="#E88134" transform="translate(446,324)"/>
<path d="M0 0 C0.66 0.66 1.32 1.32 2 2 C2.99 2 3.98 2 5 2 C5.33 2.99 5.66 3.98 6 5 C2 5 2 5 0 4 C0 2.68 0 1.36 0 0 Z " fill="#2894E9" transform="translate(6,200)"/>
<path d="M0 0 C0.28875 0.598125 0.5775 1.19625 0.875 1.8125 C2.04742026 4.19327792 2.04742026 4.19327792 4 7 C2.35 7.33 0.7 7.66 -1 8 C-0.67 5.36 -0.34 2.72 0 0 Z " fill="#2498E1" transform="translate(123,150)"/>
<path d="M0 0 C5.875 3.625 5.875 3.625 7 7 C6.01 7.495 6.01 7.495 5 8 C5 7.34 5 6.68 5 6 C4.01 5.67 3.02 5.34 2 5 C0.8125 2.4375 0.8125 2.4375 0 0 Z " fill="#6E3A8C" transform="translate(504,149)"/>
<path d="" fill="#FFFFFF" transform="translate(0,0)"/>
<path d="" fill="#FFFFFF" transform="translate(0,0)"/>
<path d="" fill="#FFFFFF" transform="translate(0,0)"/>
<path d="" fill="#FFFFFF" transform="translate(0,0)"/>
<path d="" fill="#FFFFFF" transform="translate(0,0)"/>
<path d="" fill="#FFFFFF" transform="translate(0,0)"/>
<path d="" fill="#FFFFFF" transform="translate(0,0)"/>
<path d="" fill="#FFFFFF" transform="translate(0,0)"/>
<path d="" fill="#FFFFFF" transform="translate(0,0)"/>
<path d="" fill="#FFFFFF" transform="translate(0,0)"/>
<path d="" fill="#FFFFFF" transform="translate(0,0)"/>
<path d="" fill="#FFFFFF" transform="translate(0,0)"/>
<path d="" fill="#FFFFFF" transform="translate(0,0)"/>
<path d="" fill="#FFFFFF" transform="translate(0,0)"/>
<path d="" fill="#FFFFFF" transform="translate(0,0)"/>
<path d="" fill="#FFFFFF" transform="translate(0,0)"/>
<path d="" fill="#FFFFFF" transform="translate(0,0)"/>
<path d="" fill="#FFFFFF" transform="translate(0,0)"/>
<path d="" fill="#FFFFFF" transform="translate(0,0)"/>
<path d="" fill="#FFFFFF" transform="translate(0,0)"/>
<path d="" fill="#FFFFFF" transform="translate(0,0)"/>
<path d="" fill="#FFFFFF" transform="translate(0,0)"/>
<path d="" fill="#FFFFFF" transform="translate(0,0)"/>
<path d="" fill="#FFFFFF" transform="translate(0,0)"/>
<path d="" fill="#FFFFFF" transform="translate(0,0)"/>
<path d="" fill="#FFFFFF" transform="translate(0,0)"/>
<path d="" fill="#FFFFFF" transform="translate(0,0)"/>
<path d="" fill="#FFFFFF" transform="translate(0,0)"/>
<path d="" fill="#FFFFFF" transform="translate(0,0)"/>
<path d="" fill="#FFFFFF" transform="translate(0,0)"/>
<path d="" fill="#FFFFFF" transform="translate(0,0)"/>
<path d="" fill="#FFFFFF" transform="translate(0,0)"/>
<path d="" fill="#FFFFFF" transform="translate(0,0)"/>
<path d="" fill="#FFFFFF" transform="translate(0,0)"/>
<path d="" fill="#FFFFFF" transform="translate(0,0)"/>
<path d="" fill="#FFFFFF" transform="translate(0,0)"/>
<path d="" fill="#FFFFFF" transform="translate(0,0)"/>
<path d="" fill="#FFFFFF" transform="translate(0,0)"/>
<path d="" fill="#FFFFFF" transform="translate(0,0)"/>
<path d="" fill="#FFFFFF" transform="translate(0,0)"/>
<path d="" fill="#FFFFFF" transform="translate(0,0)"/>
<path d="" fill="#FFFFFF" transform="translate(0,0)"/>
<path d="" fill="#FFFFFF" transform="translate(0,0)"/>
<path d="" fill="#FFFFFF" transform="translate(0,0)"/>
<path d="" fill="#FFFFFF" transform="translate(0,0)"/>
<path d="" fill="#FFFFFF" transform="translate(0,0)"/>
<path d="" fill="#FFFFFF" transform="translate(0,0)"/>
<path d="" fill="#FFFFFF" transform="translate(0,0)"/>
<path d="" fill="#FFFFFF" transform="translate(0,0)"/>
<path d="" fill="#FFFFFF" transform="translate(0,0)"/>
<path d="" fill="#FFFFFF" transform="translate(0,0)"/>
<path d="" fill="#FFFFFF" transform="translate(0,0)"/>
<path d="" fill="#FFFFFF" transform="translate(0,0)"/>
<path d="" fill="#FFFFFF" transform="translate(0,0)"/>
<path d="" fill="#FFFFFF" transform="translate(0,0)"/>
<path d="" fill="#FFFFFF" transform="translate(0,0)"/>
<path d="" fill="#FFFFFF" transform="translate(0,0)"/>
<path d="" fill="#FFFFFF" transform="translate(0,0)"/>
<path d="" fill="#FFFFFF" transform="translate(0,0)"/>
<path d="" fill="#FFFFFF" transform="translate(0,0)"/>
<path d="" fill="#FFFFFF" transform="translate(0,0)"/>
<path d="" fill="#FFFFFF" transform="translate(0,0)"/>
<path d="" fill="#FFFFFF" transform="translate(0,0)"/>
<path d="" fill="#FFFFFF" transform="translate(0,0)"/>
<path d="" fill="#FFFFFF" transform="translate(0,0)"/>
<path d="" fill="#FFFFFF" transform="translate(0,0)"/>
</svg>
